<?xml version="1.0"?>
<svg width="720" height="720" xmlns="http://www.w3.org/2000/svg" xmlns:svg="http://www.w3.org/2000/svg">
  <path d="m8.50003,361.00003c0,-182.59669 129.07735,-330.5 351,-330.5c221.92265,0 351,147.90331 351,330.5c0,182.59668 -117.07735,328.49999 -351,330.49999c-233.92265,2 -351,-147.90331 -351,-330.49999z" fill="#c11111" id="svg_18" stroke="#000000" stroke-dasharray="null"  stroke-width="5"/>
  <ellipse cx="648.5" cy="229.5" fill="#c11111" id="svg_19" rx="1" ry="0" stroke="#000000" stroke-dasharray="null" stroke-width="5"/>
  <path d="m328.4,89.2s8.7,18.6 -3.6,39.2c-6.2,10.2 -163.1,43.6 -224.3,128.6c-37.5,58.7 -95,228.7 88.7,341.2c82.5,42.5 117.5,41.2 117.5,41.2s-55,-38.7 -20,-65s86.2,-38.7 100,-75c16.2,12.5 42.5,38.7 67.5,36.2c-2.5,-16.2 -8.7,-22.5 11.2,-25s30,-2.5 30,-2.5s-18.7,-15 -40,-16.2s-61.2,-42.5 -60,-60c26.2,-15 60,-40 80,-32.5s40,20 43.7,31.2c0,7.5 -3.7,20 12.5,10s12.5,-16.2 18.7,-30s7.5,-16.2 -6.2,-27.5s-46.2,-37.5 -72.5,-30s-81.2,28.7 -108.7,2.5c11.2,-25 28.7,-65 20,-92.5c16.2,-12.5 35,-26.2 37.5,-48.7c18.7,-2.5 58.7,-13.7 51.2,-33.7s-60.7,-108.7 -142,-91.2" fill="#fff" id="svg_1"/>
  <path d="m587.9,293.4c13.7,-36.2 36.2,-97.5 15,-100s-45,55 -51.2,70s-31.2,90 -17.5,100s53.7,-70 53.7,-70" fill="#fff" id="svg_2"/>
  <path d="m471.6,195.9c3.9,-6.1 7.2,-0.8 -9.6,0.4c-16.8,1.2 -37,6.4 -40.4,13.8c-6.4,13.7 -8.6,47.6 -33,55.1c-1.2,8.7 0,28.7 34.3,32.5s35.6,-18.7 55.6,-18.1s18.1,-6.8 11.2,-12.5s-30.6,-43.7 -30.6,-56.2s8.1,-8.1 12.5,-15m-306.9,376.9s-10.6,-28.1 20.6,-43.1s59.3,-3.1 65,7.5s-9.3,53.1 -63.1,53.7c-13.1,-10.6 -22.5,-18.1 -22.5,-18.1" fill="#da687d" id="svg_3"/>
  <g id="svg_4" opacity="0.7" transform="matrix(1.25 0 0 -1.25 -26.846 640)">
   <path d="m494.999999,341c0.4,-1.5 0.2,-3.1 0.2,-4.8c0,-1.6 -0.1,-3.3 -0.6,-4.9c0.1,-0.3 0,-0.8 0,-1.2c-0.4,-0.5 -0.1,-0.9 -0.2,-1.3c0.6,-0.6 1.5,-1.3 1.1,-2.1c-0.2,-0.5 -0.8,-0.7 -1.4,-0.9c-0.3,-1.4 -0.7,-3 -1,-4.6c0,-0.4 0,-1 -0.1,-1.4c-0.3,-1 -0.6,-1.9 -0.9,-3c-0.2,-0.9 0,-2.6 -1,-2.8c-0.4,-1 -0.6,-1.8 -1.1,-2.8c-0.2,-0.1 -0.4,0.1 -0.6,0c-0.3,-0.3 -0.2,-0.8 -0.5,-1.1c-0.2,-0.2 -0.5,-0.1 -0.6,-0.3c-0.3,-0.5 -0.2,-1.2 -0.5,-1.9a4.7,4.7 0 0 1 -1.1,-1.4c-0.5,-1.1 -0.6,-2.6 -1.5,-3.5c-0.2,-0.2 -0.7,-0.3 -1,-0.6c-0.2,-0.2 -0.4,-0.6 -0.6,-0.9c-0.3,-0.4 -0.6,-1 -0.9,-1.5c-1,-1.7 -2.3,-3.7 -3.3,-5.6c-0.1,-0.3 -0.2,-0.8 -0.3,-1.1c-0.3,-0.8 -0.9,-1.5 -1.2,-2.3c-0.5,-1.2 -1.3,-3.3 -2.5,-4.4c-0.1,-0.1 -0.4,-0.2 -0.6,-0.4c-0.1,-0.2 -0.1,-0.5 -0.3,-0.8c0,-0.1 -0.4,-0.1 -0.5,-0.3c-0.2,-0.2 -0.3,-0.4 -0.4,-0.6c-0.4,-0.3 -1,-0.5 -1.3,-0.9c-0.2,-0.3 -0.3,-0.7 -0.6,-1.1c-0.3,-0.4 -0.7,-0.7 -1,-1.2c-0.9,-1.2 -1.3,-2.8 -2.7,-3.3c-0.3,-0.1 -0.8,-0.1 -1.2,-0.2c-0.3,0.3 0,0.8 -0.1,1.1c0,0.2 -0.2,0.3 -0.3,0.5c-0.1,0.4 -0.3,1.3 -0.3,1.8c0,0.5 0.3,0.9 0.3,1.6c0,0.5 -0.1,1.2 -0.1,1.8c0,0.3 0,0.6 0,0.9c0,0.5 0,0.8 0,1.4c0,0.7 0,1.4 -0.1,2.1c0.3,1.7 0.5,3 1,4.9c0.2,0.8 0.7,2.3 1.1,3.3c0.8,1.8 1.6,3.9 2.6,5.9c0.3,0.6 0.8,1.1 1.1,1.8c0.1,0.3 0.2,0.8 0.3,1.2c1.6,3.3 3.8,6.2 5.5,9.7c1.4,2.8 2.8,5.4 4.7,8.5c0.8,1.4 1.5,2.9 2.4,4c0.6,0.8 1.6,2.4 2.3,3.9c0.2,0.5 0.2,1 1,1.1c0.7,0.9 1.3,2 2.1,2.8c0.2,0.2 0.5,0.3 0.7,0.4c0.2,0.2 0.3,0.5 0.6,0.7c0.5,0.4 1.4,0.8 2,1.6c0.1,0.2 0.2,0.4 0.4,0.6c0.4,0.5 1.1,1.8 1.8,2c0,0 0.2,0 0.3,0" fill="#da687d" id="svg_5"/>
  </g>
  <g id="svg_6" opacity="0.7" transform="matrix(1.25 0 0 -1.25 -26.846 640)">
   <path d="m488.599999,320.6c0.6,-1.9 0.7,-4.1 0.9,-6.2c0,-2.1 -0.1,-4.5 -0.7,-6.9c0,-0.4 -0.1,-1.1 -0.1,-1.6c-0.5,-0.7 -0.2,-1.2 -0.4,-1.8c0.7,-0.8 1.6,-1.6 1.1,-2.8c-0.3,-0.8 -1.1,-1 -1.8,-1.4c-0.6,-1.9 -1.2,-4.2 -1.8,-6.3c-0.1,-0.6 -0.2,-1.3 -0.4,-1.9c-0.5,-1.3 -1.1,-2.6 -1.5,-4.1c-0.4,-1.2 -0.3,-3.4 -1.6,-3.6c-0.6,-1.3 -0.9,-2.3 -1.6,-3.6c-0.3,-0.2 -0.5,0.1 -0.8,0c-0.3,-0.4 -0.4,-1 -0.7,-1.4c-0.2,-0.2 -0.5,-0.2 -0.7,-0.5c-0.4,-0.6 -0.3,-1.5 -0.7,-2.4a6.5,6.5 0 0 1 -1.1,-1.3l-0.1,-0.2l0,-0.1l0,0l0,0l0,0l0,0.1l0,0l0,0l0,0l0,0l0,0c-0.6,-1.6 -0.8,-3.6 -1.8,-4.9c-0.3,-0.4 -0.8,-0.5 -1.1,-0.9c-0.2,-0.3 -0.4,-0.9 -0.7,-1.3c-0.3,-0.6 -0.7,-1.4 -1,-2.1c-1,-2.4 -2.5,-5.2 -3.5,-8c-0.1,-0.5 -0.2,-1.1 -0.3,-1.6c-0.4,-1.1 -1,-2.2 -1.3,-3.3c-0.6,-1.7 -1.4,-4.7 -3,-6.3c-0.1,-0.2 -0.5,-0.4 -0.7,-0.6c-0.2,-0.3 -0.1,-0.7 -0.4,-1.1c-0.1,-0.1 -0.4,-0.2 -0.6,-0.4c-0.2,-0.3 -0.3,-0.6 -0.5,-0.9c-0.5,-0.5 -1.2,-0.8 -1.7,-1.4c-0.3,-0.4 -0.5,-1 -0.9,-1.5c-0.4,-0.5 -0.9,-1.1 -1.4,-1.6l-1.8,-2.6c-0.5,-0.8 -1.2,-1.5 -2,-1.8c-0.4,-0.2 -1,-0.1 -1.5,-0.2c-0.3,0.4 0,1 0,1.5c0,0.2 -0.2,0.5 -0.2,0.7c0,0.6 -0.1,1.7 0,2.3c0,0.6 0.5,1.1 0.7,2c0.1,0.7 0,1.5 0,2.3c0,0.3 0.1,0.7 0.1,1.2c0,0.6 0,0.9 0.1,1.7c0.1,0.9 0,1.8 -0.1,2.7c0.4,2.1 0.6,3.8 1.2,6.3c0.2,1.1 0.7,3.1 1.2,4.4c0.4,1.3 0.9,2.6 1.3,4c0.4,1.4 0.9,2.8 1.4,4.2c0.3,0.9 0.8,1.7 1.2,2.7c0.2,0.5 0.2,1.1 0.4,1.7c0.4,1.2 0.9,2.5 1.5,3.6a147.5,147.5 0 0 0 1.7,3.3l0.9,1.8c0.3,0.5 0.6,1.1 0.9,1.7a75.5,75.5 0 0 1 1.8,3.6a129.6,129.6 0 0 0 3.1,5.7a340.1,340.1 0 0 0 3.6,5.8c1.1,1.8 2.2,3.8 3.3,5.3c0.8,1.1 2.1,3.1 3,5.1c0.3,0.7 0.3,1.3 1.1,1.4c0.9,1.2 1.6,2.6 2.4,3.7c0.2,0.2 0.5,0.4 0.8,0.7c0.2,0.3 0.4,0.7 0.6,1c0.5,0.6 1.6,1.2 2.2,2.5c0.1,0.3 0.1,0.6 0.3,1c0.3,0.8 1,2.7 1.7,3.1c0,0 0.2,0 0.3,0" fill="#da687d" id="svg_7"/>
  </g>
  <path d="m556.8,267.2s-10,38.3 -5.8,70l5.8,-70m11.8,-25.9c-0.7,-2.6 -5.7,74.3 -4.2,77c1.4,2.6 8.9,-60.7 4.2,-77" fill="#fff" id="svg_8"/>
  <path d="m330,91.9s5.8,33.2 -48.3,50.7s-128.8,32.4 -183.8,98.3c-55,65.8 -65,174.9 -27.5,246.6c37.5,71.6 129.1,160.8 294.1,160.8s296.1,-126.6 296.1,-214.1c0,-45.8 -25.1,-35.6 -33.8,7.3c-7.8,38.8 -80.5,183.6 -263,183.6c-182.5,0 -275.8,-110.8 -287.5,-205.8c-11.6,-95 14.8,-176.8 110.7,-226c95.8,-49.1 156.6,-29.5 143.3,-101.2" fill="#2d2b2c" id="svg_9"/>
  <path d="m284.5,350.5s-10.8,50 -63.3,74.1c-52.5,24.1 -75,37.5 -82.5,79.1c20,-33.3 78.3,-40 110.8,-72.5s35,-80.8 35,-80.8m14.1,-115.8s45,58.3 98.3,30c53.3,-28.3 25.8,-94.1 25,-98.3c-0.8,-4.1 5.8,73.3 -34.1,86.6c-40,13.3 -89.1,-18.3 -89.1,-18.3m-117.5,348.4s28.3,1.6 49.1,-21.6c20.8,-23.3 9.1,-60 43.3,-73.3c34.1,-13.3 57.5,-5 57.5,-5s-60.8,8.3 -65.8,43.3s-13.3,50.8 -26.6,61.6c-13.3,10.8 -30.8,12.5 -30.8,12.5l-26.6,-17.5l-0.1,0z" fill="#2d2b2c" id="svg_10"/>
  <path d="m309.7,401.6s50.6,-8.4 73.7,-60c18.9,-42.2 6.2,-78.7 6.2,-78.7l-25.6,3.7s10.6,30.6 2.5,58.1s-26.8,59.3 -56.8,76.8m272.6,-117c-18,45.1 -44.7,77.5 -47.8,75.8c-5.6,-3.1 -0.4,-42.5 17.6,-87.7c18,-45.1 40.5,-79.5 48.8,-76.2c8.3,3.2 -0.6,42.9 -18.6,88.1m26.2,-90.6c-20.5,-11.1 -45.8,30.5 -66.5,79.1c-20.7,48.6 -23.1,87.7 -7.1,94.7c21.3,9.3 41.4,-27.8 62.1,-76.4s30,-87.5 11.5,-97.5" fill="#2d2b2c" id="svg_11"/>
  <path d="m235.4,438.9s12.9,38.7 77.5,30.8c60.8,-7.5 86.9,-30.9 124.1,-54.1c26.6,-16.6 25,-9.1 28.3,-8.3c3.3,0.8 18.3,10 34.1,8.3c0.8,8.3 -7.4,1.6 -10.8,9.1c-1.6,5 12.6,28.5 33.3,25c34.1,-5.8 24.5,-20 31.2,-35.8c6.6,-15.8 11.2,-24.1 -22,-46.6c-25.8,-23.3 -40,-17.4 -52.5,-17.4s-45,17.4 -67.5,13.3s-36.6,-12.5 -36.6,-12.5l-14.9,16.6s27.4,20.8 59.1,13.3c31.6,-7.5 55,-31.6 82.5,-19.1c27.5,12.5 32.8,20.8 41.2,27c9.5,7 10.4,14.5 3.7,21.2c-6.6,6.6 0,11.6 -4.1,19.1c-4.1,7.5 -25,10.8 -25,10.8s22.8,-29.3 -5,-31.6c-20,-1.6 -32.5,-28.3 -60.8,-14.1c-40.6,20.3 -98.3,55 -138.3,59.1c-38.9,4 -53.3,-8.3 -63.3,-31.6c-11.6,10 -14.1,17.5 -14.1,17.5" fill="#2d2b2c" id="svg_12"/>
  <path d="m378.7,447.2s28.3,15 20,47.5s-45.8,55 -70,65.8c-24.1,10.8 -42.1,25.1 -24.1,34.1c15,7.5 23.3,-11.6 45,-15c21.6,-3.3 40.8,5 42.5,17.5c-9.1,-5 -15.8,-5 -15.8,-5s7.5,5 8.3,13.3c0.8,8.3 -0.8,4.1 -5.8,4.1c-12.5,0 -14.1,-10.8 -25,-9.1c-27.5,2.5 -29.1,14.1 -44.1,15.8c-15,1.6 -40,-6.6 -36.6,-25.8c3.3,-19.1 29.1,-32.5 53.3,-42.5c24.1,-10 60.8,-41.6 55.8,-70c-5,-28.3 -26.6,-22.5 -26.6,-22.5l23.3,-8.3l-0.2,0.1zm71,-235.9s11.8,5.9 19.3,35.9c5,10.8 11.6,19.5 17.5,22c5.8,2.5 -2.5,5 -6.6,4.1c-4.1,-0.8 -12.9,-4.5 -18.7,0.4s-20,18.3 -40,15c-20,-3.3 -37,-16 -37,-16s7.5,33.1 52,31c30.9,-1.4 24.1,-17.5 45,-20.8c20.8,-3.3 18.6,-13.8 14.1,-22.5c-7,-13.7 -29.1,-17 -31.6,-57.2c-2.5,-4.1 -18.1,0.5 -13.9,8m71.2,209.1c1.8,1.8 -14.7,39.3 -14.7,39.3s-3.3,9.1 -12.2,5.9c-9.1,-3.3 -6.7,-9.9 -6.7,-9.9l21.2,-38.5s11.6,2.3 12.5,3.2m23.4,-53.3l-4.1,12.5l-13.6,-10.4l3.6,-7.9l14.1,5.8z" fill="#2d2b2c" id="svg_13"/>
  <path d="m392,439.7c-2.5,9.1 29.1,62.5 50.8,59.1c21.6,-3.3 24.9,3.3 18.3,7.5c-6.6,4.1 -18.3,5.8 -16.6,11.6c1.6,5.8 6.2,11.6 -4.5,10c-10.8,-1.6 -32.9,-13.3 -46.2,-35.8c-4.1,13.3 -5.8,17.5 -5.8,17.5s42.5,44.1 85.8,25.8c-7.5,-5.8 -28.3,-4.1 -10.8,-14.1s30.8,-13.3 39.1,2.5c4.1,-0.8 4.1,-37.5 -50.8,-35c-19.1,-2.5 -45,-40 -45,-59.1c-5,5 -11.6,0.8 -14.1,10m169.4,-184.3s-10.9,32.8 -6.3,60l6.3,-60m11.2,-19.4c-0.5,-2 -5,57.2 -4,59.2c1,2 7.3,-46.6 4,-59.2m-145.6,-32.8s47,-4.1 38.7,-22.9c-25.1,-56.5 -72.9,-89.5 -161.2,-86.2c50,-20 92.5,-17.5 133.3,17.5c20.4,17.5 29.8,38.8 37.1,55.1c11.6,26 8.2,28.4 -4.6,35.7c-15.7,8.8 -42.7,3.2 -43.3,0.8" fill="#2d2b2c" id="svg_14"/>
  <path d="m431.8,210.2s12.9,8.9 23.1,1.6c4.6,-4.8 7.7,-7.4 -5.4,-6.8l-16.1,-0.6c-11.1,-2.2 -10.9,1.1 -1.5,5.8l-0.1,0z" fill="#2d2b2c" id="svg_15"/>
</svg>
